<svg width="500" height="500" viewBox="0 0 500 500" fill="none" xmlns="http://www.w3.org/2000/svg">
<g clip-path="url(#clip0_111_91)">
<path d="M109.898 401.078C105.801 401.078 102.479 404.399 102.479 408.497V492.581C102.479 496.68 105.801 500 109.898 500C113.996 500 117.317 496.679 117.317 492.581V408.497C117.317 404.399 113.996 401.078 109.898 401.078Z" fill="#E25500"/>
<path d="M294.031 212.749C291.132 209.853 286.436 209.853 283.538 212.749C267.052 229.238 240.224 229.238 223.736 212.749C220.838 209.853 216.141 209.853 213.244 212.749C210.347 215.648 210.347 220.344 213.244 223.242C224.381 234.378 239.009 239.947 253.638 239.947C268.266 239.947 282.894 234.378 294.032 223.242C296.928 220.344 296.928 215.647 294.031 212.749Z" fill="#E25500"/>
<path d="M360.316 330.675H337.024C323.449 330.675 312.327 319.978 311.643 306.569C311.642 306.56 311.643 306.551 311.642 306.543C311.622 306.118 311.61 305.692 311.61 305.262V277.775C336.162 262.847 353.869 237.746 358.856 208.37C378.664 205.772 394.009 188.795 394.009 168.289C394.009 148.28 379.398 131.628 360.286 128.42V100.991C360.285 45.3038 314.982 0 259.295 0H247.979C243.881 0 240.56 3.3213 240.56 7.41896C240.56 11.5166 243.881 14.8379 247.979 14.8379H259.295C306.799 14.8379 345.448 53.4855 345.448 100.99V117.625C326.739 117.322 311.61 102.017 311.61 83.2365C311.61 83.2326 311.609 83.2287 311.609 83.2287C311.613 81.3205 310.89 79.4142 309.437 77.9611C306.538 75.0646 301.842 75.0646 298.945 77.9611C273.964 102.945 233.313 102.946 208.329 77.9611C205.432 75.0646 200.735 75.0646 197.838 77.9611C194.941 80.8595 194.941 85.5558 197.838 88.4533C212.742 103.357 232.56 111.567 253.638 111.567C270.048 111.567 285.682 106.571 298.84 97.3342C302.888 110.855 312.597 121.946 325.207 127.852H324.241H269.049H240.422H182.243C181.839 127.852 181.445 127.894 181.058 127.954C180.671 127.892 180.277 127.852 179.872 127.852H161.825V100.99C161.825 71.1105 177.09 43.755 202.659 27.8155C206.137 25.6485 207.197 21.0733 205.03 17.5948C202.863 14.1182 198.287 13.0557 194.809 15.2246C164.864 33.8907 146.987 65.9533 146.987 100.99V128.353C126.685 130.488 110.809 147.704 110.809 168.565C110.809 189.94 127.482 207.484 148.506 208.898C153.091 235.063 167.781 257.791 188.392 272.902V305.261C188.392 319.274 176.991 330.674 162.978 330.674H139.686C119.17 330.674 102.48 347.366 102.48 367.881C102.48 371.979 105.803 375.3 109.899 375.3C113.997 375.3 117.318 371.979 117.318 367.881C117.318 355.546 127.353 345.512 139.686 345.512H162.978C178.858 345.512 192.614 336.267 199.16 322.881L237.952 370.161H181.44C177.342 370.161 174.021 373.481 174.021 377.58V461.507C174.021 465.605 177.342 468.926 181.44 468.926H320.587C324.686 468.926 328.006 465.604 328.006 461.507V377.58C328.006 373.481 324.686 370.161 320.587 370.161H268.089L301.327 323.829C308.049 336.701 321.522 345.512 337.023 345.512H360.315C372.649 345.512 382.682 355.547 382.682 367.881V492.581C382.682 496.68 386.003 500 390.101 500C394.2 500 397.52 496.679 397.52 492.581V367.881C397.521 347.366 380.831 330.675 360.316 330.675ZM360.285 191.417V143.59C371.153 146.548 379.169 156.497 379.169 168.289C379.169 180.089 371.143 190.043 360.264 192.994C360.273 192.469 360.285 191.945 360.285 191.417ZM125.647 168.564C125.647 155.899 134.894 145.36 146.987 143.325V191.416C146.987 192.215 146.999 193.012 147.018 193.806C134.908 191.786 125.647 181.239 125.647 168.564ZM319.808 142.691V163.3C319.808 166.818 316.945 169.68 313.428 169.68H282.847C279.329 169.68 276.467 166.817 276.467 163.3V142.691H319.808ZM189.659 142.691H189.66H233.002V163.3C233.002 166.818 230.14 169.68 226.621 169.68H196.04C192.523 169.68 189.659 166.817 189.659 163.3V142.691ZM313.168 385V454.089H188.859V385H313.168ZM296.772 304.726L253.243 365.404L203.232 304.45V281.936C216.727 288.634 231.919 292.409 247.979 292.409H259.295C272.531 292.409 285.178 289.844 296.772 285.196V304.726ZM259.295 277.57H247.979C200.474 277.57 161.826 238.921 161.826 191.417V142.691H174.823V163.3C174.823 174.999 184.342 184.518 196.042 184.518H226.623C238.324 184.518 247.842 174.999 247.842 163.3V142.691H261.631V163.3C261.631 174.999 271.15 184.518 282.849 184.518H313.429C325.128 184.518 334.647 174.999 334.647 163.3V142.691H345.449V191.417C345.448 238.921 306.8 277.57 259.295 277.57Z" fill="#E25500"/>
<path d="M238.647 396.246C237.15 396.246 235.994 396.721 235.654 398.014L225.314 434.886L214.906 398.014C214.566 396.721 213.409 396.246 211.913 396.246C209.532 396.246 206.334 397.743 206.334 399.919C206.334 400.054 206.402 400.327 206.47 400.599L219.6 443.389C220.281 445.431 222.73 446.383 225.315 446.383C227.9 446.383 230.418 445.431 231.03 443.389L244.091 400.599C244.16 400.327 244.228 400.124 244.228 399.919C244.226 397.81 241.029 396.246 238.647 396.246Z" fill="#E25500"/>
<path d="M253.339 396.245C251.095 396.245 248.917 397.061 248.917 398.966V443.185C248.917 445.021 251.094 445.974 253.339 445.974C255.516 445.974 257.761 445.022 257.761 443.185V398.966C257.761 397.061 255.516 396.245 253.339 396.245Z" fill="#E25500"/>
<path d="M282.929 396.245H269.256C267.215 396.245 265.922 397.538 265.922 398.966L265.921 443.185C265.921 445.021 268.098 445.974 270.343 445.974C272.521 445.974 274.766 445.021 274.766 443.185V427.402H282.385C291.366 427.402 298.372 423.116 298.372 411.96V411.553C298.373 400.394 291.569 396.245 282.929 396.245ZM289.529 412.64C289.529 417.946 286.807 420.464 282.385 420.464H274.766V404.001H282.385C286.807 404.001 289.529 406.517 289.529 411.823V412.64Z" fill="#E25500"/>
</g>
<defs>
<clipPath id="clip0_111_91">
<rect width="500" height="500" fill="white"/>
</clipPath>
</defs>
</svg>
