<svg width="500" height="500" viewBox="0 0 500 500" fill="none" xmlns="http://www.w3.org/2000/svg">
<g clip-path="url(#clip0_112_118)">
<path d="M269.754 239.22H230.246V360.155H269.754V239.22Z" fill="#FFC26D"/>
<path d="M269.754 239.22V272.709C263.665 275.241 256.993 276.647 250 276.647C243.007 276.647 236.335 275.241 230.246 272.709V239.22H269.754Z" fill="#FF9A1B"/>
<path d="M367.323 395.159C364.48 395.159 361.758 393.545 360.478 390.798C358.72 387.021 360.355 382.531 364.133 380.773C396.782 365.567 420.823 344.104 435.59 316.979C447.437 295.215 453.465 269.65 453.505 240.995C453.573 191.407 435.476 149.341 435.293 148.922C433.628 145.105 435.37 140.657 439.186 138.989C443.002 137.322 447.448 139.06 449.119 142.875C449.912 144.689 468.554 187.876 468.596 240.537C468.634 289.895 451.647 356.663 370.504 394.453C369.474 394.932 368.39 395.159 367.323 395.159Z" fill="#FA8916"/>
<path d="M442.529 88.1593C450.81 112.136 453.012 146.994 442.172 150.738C431.332 154.483 411.554 125.693 403.273 101.716C394.993 77.7394 401.347 67.6564 412.188 63.9122C423.027 60.1701 434.249 64.1837 442.529 88.1593Z" fill="#E25500"/>
<path d="M442.169 150.733C439.646 151.607 436.633 150.713 433.387 148.523C436.843 135.942 434.05 112.049 427.881 94.1837C421.33 75.2237 412.939 68.753 404.349 68.7227C406.459 66.5118 409.142 64.9552 412.186 63.9102C423.027 60.1729 434.251 64.1817 442.53 88.1554C450.811 112.14 453.011 146.996 442.169 150.733Z" fill="#FFC26D"/>
<path d="M461.451 243.777C456.447 247.474 446.068 242.821 435.217 234.542C426.064 227.549 416.568 217.984 409.665 208.649C394.583 188.241 397.628 176.727 406.852 169.904C415.815 163.282 427.319 163.544 441.808 182.303C442.23 182.835 442.642 183.388 443.064 183.961C458.135 204.359 470.675 236.954 461.451 243.777Z" fill="#FFB54E"/>
<path d="M461.451 243.776C456.447 247.474 446.069 242.821 435.217 234.542C434.624 230.262 434.453 225.429 434.704 220.064C435.257 208.107 437.869 194.361 441.808 182.304C442.23 182.836 442.642 183.389 443.064 183.962C458.135 204.359 470.675 236.954 461.451 243.776Z" fill="#FF9A1B"/>
<path d="M456.815 182.045C447.876 205.783 444.713 240.568 455.446 244.61C466.178 248.651 486.743 220.419 495.681 196.68C504.619 172.942 498.546 162.687 487.814 158.645C477.081 154.604 465.753 158.307 456.815 182.045Z" fill="#E25500"/>
<path d="M495.684 196.683C486.741 220.415 466.184 248.65 455.442 244.611C452.94 243.676 451.202 241.064 450.107 237.316C460.818 229.941 474.021 209.655 480.713 191.89C487.757 173.171 485.476 162.842 478.935 157.325C481.898 157.014 484.883 157.536 487.816 158.642C498.547 162.691 504.616 172.94 495.684 196.683Z" fill="#FFC26D"/>
<path d="M435.567 346.013C429.509 347.439 421.811 339.06 415.11 327.163C409.453 317.136 404.51 304.586 401.847 293.292C396.04 268.605 403.385 259.21 414.548 256.587C425.409 254.035 435.879 258.817 441.787 281.787C441.958 282.44 442.119 283.104 442.279 283.786C448.077 308.484 446.73 343.38 435.567 346.013Z" fill="#FFB54E"/>
<path d="M435.567 346.013C429.509 347.439 421.812 339.06 415.11 327.163C416.246 322.993 417.994 318.492 420.346 313.659C425.581 302.888 433.408 291.303 441.788 281.787C441.959 282.44 442.12 283.104 442.28 283.786C448.077 308.484 446.73 343.38 435.567 346.013Z" fill="#FF9A1B"/>
<path d="M455.669 287.459C438.088 305.743 421.453 336.457 429.721 344.405C437.988 352.353 468.025 334.528 485.606 316.244C503.187 297.96 501.654 286.141 493.388 278.191C485.12 270.243 473.25 269.175 455.669 287.459Z" fill="#E25500"/>
<path d="M485.605 316.241C468.021 334.528 437.989 352.353 429.719 344.405C428.443 343.18 427.76 341.401 427.589 339.211C440.35 335.463 458.597 322.974 470.825 310.263C487.946 292.458 486.941 280.782 479.245 272.835C484.891 272.273 489.534 274.482 493.382 278.19C501.652 286.138 503.189 297.964 485.605 316.241Z" fill="#FFC26D"/>
<path d="M132.677 395.159C131.61 395.159 130.526 394.932 129.496 394.452C48.3526 356.661 31.3663 289.894 31.4044 240.535C31.4454 187.875 50.087 144.687 50.8809 142.873C52.5518 139.056 57.0001 137.316 60.8194 138.987C64.6348 140.658 66.3751 145.105 64.7071 148.921C64.5245 149.341 46.4268 191.406 46.4952 240.994C46.5352 269.65 52.5626 295.215 64.4102 316.978C79.1768 344.103 103.218 365.566 135.867 380.772C139.645 382.53 141.28 387.02 139.522 390.797C138.242 393.544 135.52 395.159 132.677 395.159Z" fill="#FA8916"/>
<path d="M57.4708 88.1592C49.1905 112.136 46.9884 146.994 57.8282 150.738C68.6681 154.482 88.4464 125.692 96.7267 101.716C105.007 77.7393 98.6534 67.6563 87.8126 63.9122C76.9718 60.168 65.7511 64.1836 57.4708 88.1592Z" fill="#E25500"/>
<path d="M96.7256 101.721C88.4463 125.696 68.6719 154.482 57.8301 150.735C55.167 149.821 53.2881 147.027 52.1025 142.968C62.6523 135.422 75.4238 114.614 81.6631 96.5472C87.9131 78.4407 85.8232 68.2522 79.7539 62.7561C82.4268 62.5354 85.1299 62.9876 87.8125 63.9114C98.6553 67.6585 105.005 77.7366 96.7256 101.721Z" fill="#FFC26D"/>
<path d="M38.549 243.776C43.553 247.474 53.9319 242.821 64.7834 234.542C73.9367 227.549 83.4319 217.983 90.3352 208.648C105.417 188.241 102.372 176.727 93.1487 169.904C84.1858 163.282 72.6809 163.544 58.1926 182.303C57.7707 182.835 57.3586 183.388 56.9367 183.961C41.8655 204.358 29.3254 236.954 38.549 243.776Z" fill="#FFB54E"/>
<path d="M90.335 208.649C83.4316 217.983 73.9365 227.549 64.7832 234.543C53.9316 242.822 43.5518 247.475 38.5488 243.777C37.1924 242.772 36.2979 241.195 35.8262 239.195C40.0264 237.366 44.7588 234.402 49.582 230.725C58.7354 223.731 68.2305 214.166 75.1338 204.831C89.9746 184.756 87.2617 173.281 78.3897 166.429C83.9258 165.123 88.8389 166.72 93.1494 169.905C102.373 176.728 105.417 188.242 90.335 208.649Z" fill="#FF9A1B"/>
<path d="M38.549 243.776C43.553 247.474 53.9319 242.821 64.7834 234.542C65.3762 230.262 65.5471 225.429 65.2961 220.063C64.7434 208.106 62.1311 194.361 58.1926 182.304C57.7707 182.836 57.3586 183.389 56.9367 183.962C41.8655 204.358 29.3254 236.954 38.549 243.776Z" fill="#FF9A1B"/>
<path d="M43.1856 182.045C52.1241 205.783 55.2872 240.568 44.5548 244.61C33.8223 248.652 13.2569 220.419 4.31842 196.68C-4.62005 172.94 1.45319 162.687 12.1856 158.645C22.919 154.604 34.2471 158.307 43.1856 182.045Z" fill="#E25500"/>
<path d="M44.5576 244.61C41.8545 245.625 38.5293 244.601 34.9219 242.108C38.8408 229.991 35.3838 204.74 28.4111 186.223C22.0508 169.343 14.4951 162.601 6.79785 161.565C8.38574 160.34 10.2041 159.385 12.1836 158.642C22.915 154.603 34.249 158.311 43.1807 182.043C52.123 205.786 55.2891 240.571 44.5576 244.61Z" fill="#FFC26D"/>
<path d="M64.4324 346.013C70.491 347.439 78.1883 339.06 84.8894 327.163C90.5467 317.136 95.49 304.586 98.1521 293.292C103.96 268.605 96.615 259.21 85.4519 256.587C74.5906 254.035 64.1209 258.817 58.2127 281.787C58.0418 282.44 57.8807 283.104 57.7205 283.786C51.9226 308.484 53.2693 343.38 64.4324 346.013Z" fill="#FFB54E"/>
<path d="M98.1523 293.292C95.4893 304.586 90.5459 317.136 84.8897 327.163C78.1875 339.06 70.4912 347.44 64.4326 346.013C61.5791 345.34 59.3682 342.557 57.751 338.376C61.6699 335.03 65.7393 329.464 69.4863 322.802C75.1436 312.775 80.0869 300.225 82.749 288.931C86.959 271.046 84.2559 261.179 78.207 256.114C80.5684 255.813 83 256.014 85.4512 256.587C96.6152 259.21 103.96 268.605 98.1523 293.292Z" fill="#FF9A1B"/>
<path d="M64.4326 346.013C70.4912 347.439 78.1885 339.06 84.8897 327.163C83.7539 322.993 82.0059 318.492 79.6543 313.659C74.419 302.888 66.5918 291.303 58.2119 281.787C58.041 282.44 57.8799 283.104 57.7198 283.786C51.9229 308.484 53.2696 343.38 64.4326 346.013Z" fill="#FF9A1B"/>
<path d="M44.331 287.459C61.912 305.743 78.5468 336.457 70.2792 344.405C62.0116 352.354 31.9745 334.528 14.3935 316.244C-3.18758 297.96 -1.65438 286.141 6.61222 278.191C14.8788 270.242 26.7499 269.175 44.331 287.459Z" fill="#E25500"/>
<path d="M70.2803 344.405C67.6377 346.947 62.7646 346.857 56.7861 344.948C59.0068 333.544 44.3066 307.932 28.8838 291.896C20.4434 283.113 13.3193 278.803 7.28125 277.567C15.5107 270.202 27.2158 269.66 44.3271 287.465C61.9102 305.741 78.5488 336.457 70.2803 344.405Z" fill="#FFC26D"/>
<path d="M369.186 356.398V447.435H130.814V356.398C130.814 350.845 135.312 346.348 140.854 346.348H359.145C364.688 346.348 369.186 350.845 369.186 356.398Z" fill="#EFE2DD"/>
<path d="M369.187 356.397V447.44H346.076V356.397C346.076 350.851 341.575 346.35 336.028 346.35H359.139C364.686 346.35 369.187 350.851 369.187 356.397Z" fill="#CDBFBB"/>
<path d="M410.083 476.348H89.917C84.3682 476.348 79.8691 471.849 79.8691 466.3V440.831C79.8691 435.282 84.3682 430.783 89.917 430.783H410.083C415.632 430.783 420.131 435.282 420.131 440.831V466.3C420.131 471.85 415.633 476.348 410.083 476.348Z" fill="#FFF5F5"/>
<path d="M420.13 440.829V466.3C420.13 471.847 415.629 476.348 410.082 476.348H387.896C393.443 476.348 397.944 471.847 397.944 466.3V440.829C397.944 435.282 393.443 430.781 387.896 430.781H410.082C415.628 430.781 420.13 435.282 420.13 440.829Z" fill="#EFE2DD"/>
<path d="M290.782 395.157H209.219C205.052 395.157 201.674 391.779 201.674 387.612C201.674 383.445 205.052 380.067 209.219 380.067H290.782C294.949 380.067 298.327 383.445 298.327 387.612C298.327 391.779 294.949 395.157 290.782 395.157Z" fill="#FFC26D"/>
<path d="M287.428 225.152C287.428 234.366 284.092 242.816 278.565 249.338C271.692 257.437 261.444 262.581 250 262.581C238.556 262.581 228.307 257.437 221.435 249.338C215.908 242.816 212.572 234.366 212.572 225.152C212.572 204.484 229.332 187.725 250 187.725C270.668 187.725 287.428 204.484 287.428 225.152Z" fill="#E25500"/>
<path d="M287.428 225.152C287.428 234.366 284.092 242.816 278.565 249.338L250 234.316L221.435 249.338C215.908 242.816 212.572 234.366 212.572 225.152C212.572 204.484 229.332 187.725 250 187.725C270.668 187.725 287.428 204.484 287.428 225.152Z" fill="#FFC26D"/>
<path d="M365.459 122.431L316.656 169.986L328.176 237.151C329.898 247.211 319.348 254.874 310.306 250.132L250 218.427L189.694 250.131C180.652 254.873 170.102 247.21 171.824 237.15L178.06 200.786L183.344 169.985L134.541 122.43C127.238 115.308 131.275 102.886 141.367 101.425L208.795 91.6279L238.956 30.5186C243.469 21.3623 256.531 21.3623 261.043 30.5186L291.204 91.6279L313.669 94.8936L358.632 101.425C368.725 102.887 372.761 115.309 365.459 122.431Z" fill="#FFCE8B"/>
<path d="M365.459 122.431L316.656 169.986L328.176 237.151C329.898 247.211 319.348 254.874 310.306 250.132L250 218.427L189.694 250.131C180.652 254.873 170.101 247.21 171.824 237.15L178.059 200.786C271.644 183.704 303.249 132.325 313.67 94.8945L358.633 101.426C368.724 102.887 372.761 115.309 365.459 122.431Z" fill="#FFB54E"/>
</g>
<defs>
<clipPath id="clip0_112_118">
<rect width="500" height="500" fill="white"/>
</clipPath>
</defs>
</svg>
